<svg xmlns="http://www.w3.org/2000/svg" width="437.185" height="409.968" viewBox="0 0 437.185 409.968"><g transform="translate(-770.68 -353.612)"><path d="M.956.612,219.02,113.847V410.581L0,295.488" transform="translate(770.68 353)" fill="#0389ff"/><path d="M218.816.665,0,113.839V410.573L219.02,295.48Z" transform="translate(988.845 353.008)" fill="#01437d"/><g transform="translate(1012.943 398.077)" fill="none"><path d="M170.666.665,0,88.935V320.373l170.825-89.767Z" stroke="none"/><path d="M 164.6729736328125 10.51995849609375 L 5.999969482421875 92.58688354492188 L 5.999969482421875 310.4421691894531 L 164.8226928710938 226.9827270507812 L 164.6729736328125 10.51995849609375 M 170.6661529541016 0.66522216796875 L 170.8252105712891 230.6064453125 L -3.0517578125e-05 320.3730773925781 L -3.0517578125e-05 88.93513488769531 L 170.6661529541016 0.66522216796875 Z" stroke="none" fill="#71bdff"/></g><line y1="60.414" x2="110.296" transform="translate(1044.665 444.698)" fill="none" stroke="#71bdff" stroke-linecap="round" stroke-width="4" stroke-dasharray="8 12"/><line y1="60.414" x2="110.296" transform="translate(1044.665 477.027)" fill="none" stroke="#71bdff" stroke-linecap="round" stroke-width="4" stroke-dasharray="18 12"/><line y1="60.414" x2="110.296" transform="translate(1044.665 509.356)" fill="none" stroke="#71bdff" stroke-linecap="round" stroke-width="4" stroke-dasharray="8 12"/><line y1="60.414" x2="110.296" transform="translate(1044.665 541.686)" fill="none" stroke="#71bdff" stroke-linecap="round" stroke-width="4" stroke-dasharray="18 12"/><line y1="60.414" x2="110.296" transform="translate(1044.665 574.015)" fill="none" stroke="#71bdff" stroke-linecap="round" stroke-width="4" stroke-dasharray="8 12"/><line y1="60.414" x2="110.296" transform="translate(1044.665 606.345)" fill="none" stroke="#71bdff" stroke-linecap="round" stroke-width="4" stroke-dasharray="18 12"/><g transform="translate(808.663 508.984)"><path d="M-1911.655,235.54h44.433l-20.191,85.8Z" transform="translate(1960.879 -200.29)" fill="#01437d"/><path d="M-1872.477,235.238h46.337l-68.217,85.79Z" transform="translate(1969.208 -199.989)" fill="#afdaff"/><path d="M-1856.2,235.486h-46.045l71.708,86.037Z" transform="translate(1902.452 -200.299)" fill="#afdaff"/><path d="M22.828,0,45.656,31.959H0Z" transform="translate(0 1.522)" fill="#71bdff"/><path d="M22.828,0,45.656,31.959H0Z" transform="translate(48.699 1.522)" fill="#01437d"/><path d="M22.828,0,45.656,31.959H0Z" transform="translate(97.399 1.522)" fill="#71bdff"/><path d="M22.828,0,45.656,31.959H0Z" transform="translate(70.005 31.959) rotate(180)" fill="#afdaff"/><path d="M22.828,0,45.656,31.959H0Z" transform="translate(118.704 31.959) rotate(180)" fill="#afdaff"/></g></g></svg>