<svg xmlns="http://www.w3.org/2000/svg" width="143.068" height="121.224" viewBox="0 0 143.068 121.224">
  <g id="Diamind" transform="translate(0 0)">
    <path id="Path_8" data-name="Path 8" d="M-1911.655,235.54h44.433l-20.191,85.8Z" transform="translate(1960.879 -200.29)" fill="#01437d"/>
    <path id="Path_9" data-name="Path 9" d="M-1872.477,235.238h46.337l-68.217,85.79Z" transform="translate(1969.208 -199.989)" fill="#afdaff"/>
    <path id="Path_10" data-name="Path 10" d="M-1856.2,235.486h-46.045l71.708,86.037Z" transform="translate(1902.452 -200.299)" fill="#afdaff"/>
    <path id="Polygon_1" data-name="Polygon 1" d="M22.828,0,45.656,31.959H0Z" transform="translate(0 1.522)" fill="#71bdff"/>
    <path id="Polygon_2" data-name="Polygon 2" d="M22.828,0,45.656,31.959H0Z" transform="translate(48.699 1.522)" fill="#01437d"/>
    <path id="Polygon_3" data-name="Polygon 3" d="M22.828,0,45.656,31.959H0Z" transform="translate(97.399 1.522)" fill="#71bdff"/>
    <path id="Polygon_4" data-name="Polygon 4" d="M22.828,0,45.656,31.959H0Z" transform="translate(70.005 31.959) rotate(180)" fill="#afdaff"/>
    <path id="Polygon_5" data-name="Polygon 5" d="M22.828,0,45.656,31.959H0Z" transform="translate(118.704 31.959) rotate(180)" fill="#afdaff"/>
  </g>
</svg>
