<svg xmlns="http://www.w3.org/2000/svg" width="358.847" height="39.915" viewBox="0 0 358.847 39.915"><g transform="translate(-2272.287 -1395.135)"><g transform="translate(2597.546 1396.191)"><path d="M2658.085,1433.891l-18.812-20.3,17.758-17.543h-9.12l-15.88,16.417h-.162v-7.378a6.447,6.447,0,0,1-6.759.054v28.89h6.759v-19.046h.162l16.66,19.017a.082.082,0,0,0,.061.028h9.272A.083.083,0,0,0,2658.085,1433.891Z" transform="translate(-2624.518 -1395.65)" fill="#01437d"/><path d="M2628.477,1403.528a3.929,3.929,0,1,0-3.928-3.929A3.928,3.928,0,0,0,2628.477,1403.528Z" transform="translate(-2624.549 -1395.671)" fill="#e10404"/></g><g transform="translate(2551.013 1395.135)"><path d="M2598.443,1410.324a3.924,3.924,0,1,0,3.924,3.924A3.923,3.923,0,0,0,2598.443,1410.324Z" transform="translate(-2578.486 -1394.29)" fill="#e10404"/><path d="M2599.288,1395.135a19.957,19.957,0,1,0,19.958,19.958A19.957,19.957,0,0,0,2599.288,1395.135Zm0,33.044a13.086,13.086,0,1,1,13.086-13.087A13.086,13.086,0,0,1,2599.288,1428.179Z" transform="translate(-2579.331 -1395.135)" fill="#01437d"/></g><g transform="translate(2504.479 1395.135)"><path d="M2550.013,1411.392a3.924,3.924,0,1,0,3.923,3.924A3.924,3.924,0,0,0,2550.013,1411.392Z" transform="translate(-2530.055 -1395.359)" fill="#e10404"/><path d="M2550.858,1396.2a19.957,19.957,0,1,0,19.957,19.957A19.957,19.957,0,0,0,2550.858,1396.2Zm0,33.043a13.086,13.086,0,1,1,13.086-13.087A13.086,13.086,0,0,1,2550.858,1429.247Z" transform="translate(-2530.9 -1396.204)" fill="#01437d"/></g><g transform="translate(2469.685 1396.191)"><path d="M2526.328,1417.262a9.962,9.962,0,0,0-5.9-2.79v-.108a10.139,10.139,0,0,0,4.774-3,7.8,7.8,0,0,0,1.824-5.312,8.588,8.588,0,0,0-3.676-7.377,10.87,10.87,0,0,0-3.728-1.663,17.845,17.845,0,0,0-4.238-.51h-14.807v28.956a6.453,6.453,0,0,1,6.759-.531v-7.18h6.331a12.649,12.649,0,0,1,6.17,1.18q2.038,1.181,2.038,4.185a4.945,4.945,0,0,1-.832,3,5.425,5.425,0,0,1-2.093,1.718,9.164,9.164,0,0,1-2.762.778,22.481,22.481,0,0,1-2.79.187h-2.807a6.467,6.467,0,0,1-.937,5.687h4.6a24.962,24.962,0,0,0,5.285-.563,13.968,13.968,0,0,0,4.614-1.851,9.875,9.875,0,0,0,3.245-3.407,10.234,10.234,0,0,0,1.234-5.231A8.342,8.342,0,0,0,2526.328,1417.262Zm-7.833-6.653a8.422,8.422,0,0,1-5.15,1.342h-6.009v-9.871h5.419a11.592,11.592,0,0,1,5.687,1.073,3.886,3.886,0,0,1,1.824,3.648A4.5,4.5,0,0,1,2518.5,1410.61Z" transform="translate(-2500.459 -1396.5)" fill="#01437d"/><path d="M2504.394,1425.178a3.929,3.929,0,1,0,3.928,3.928A3.928,3.928,0,0,0,2504.394,1425.178Z" transform="translate(-2500.465 -1394.905)" fill="#e10404"/></g><g transform="translate(2455.21 1396.191)"><path d="M2485,1405.158v28.9h6.759v-28.938a6.445,6.445,0,0,1-6.759.042Z" transform="translate(-2484.417 -1395.677)" fill="#01437d"/><path d="M2488.376,1404.03a3.928,3.928,0,1,0-3.928-3.928A3.928,3.928,0,0,0,2488.376,1404.03Z" transform="translate(-2484.448 -1396.174)" fill="#01437d"/></g><g transform="translate(2421.392 1396.191)"><path d="M2463.372,1423.754l-4.12-6.682a11.754,11.754,0,0,0,6.357-3.514,9.7,9.7,0,0,0,2.333-6.733,10.247,10.247,0,0,0-1.179-5.1,9.685,9.685,0,0,0-3.14-3.38,13.4,13.4,0,0,0-4.479-1.85,23.793,23.793,0,0,0-5.2-.564h-13.2v37.984h6.759v-16.094h4.936l5.062,9.258a6.487,6.487,0,0,1,5.671-3.338C2463.238,1423.744,2463.3,1423.752,2463.372,1423.754Zm-7.448-11.672a19.67,19.67,0,0,1-2.9.215H2447.5v-10.677h6.116a17.337,17.337,0,0,1,2.656.214,7.437,7.437,0,0,1,2.441.805,5.207,5.207,0,0,1,1.77,1.583,4.338,4.338,0,0,1,.7,2.548,4.884,4.884,0,0,1-.751,2.817,5.064,5.064,0,0,1-1.9,1.69A8.345,8.345,0,0,1,2455.924,1412.082Z" transform="translate(-2440.742 -1395.934)" fill="#01437d"/><path d="M2462.2,1424.7a3.928,3.928,0,1,0,3.928,3.928A3.929,3.929,0,0,0,2462.2,1424.7Z" transform="translate(-2439.767 -1394.333)" fill="#01437d"/></g><g transform="translate(2388.647 1396.191)"><path d="M2407.087,1428.544v-10.729h8a6.432,6.432,0,0,1,.04-5.687h-8.038v-9.657h18.4v-5.9h-25.162v37.983h26.127v-6.009Z" transform="translate(-2400.327 -1396.57)" fill="#01437d"/><path d="M2416.124,1414.248a3.928,3.928,0,1,0,3.929-3.928A3.929,3.929,0,0,0,2416.124,1414.248Z" transform="translate(-2399.448 -1395.805)" fill="#01437d"/></g><g transform="translate(2346.891 1396.191)"><path d="M2377.62,1404.675l-7.838,21.686h-.214l-10.466-29.247h-7.567l15.026,37.994h5.849l11.226-27.984a6.385,6.385,0,0,1-6.016-2.449Z" transform="translate(-2351.535 -1396.773)" fill="#01437d"/><path d="M2381.306,1396.791a3.929,3.929,0,1,0,3.928,3.929A3.929,3.929,0,0,0,2381.306,1396.791Z" transform="translate(-2350.097 -1396.791)" fill="#01437d"/></g><g transform="translate(2308.146 1396.191)"><path d="M2332.06,1418.332a3.923,3.923,0,1,0,3.924,3.923A3.923,3.923,0,0,0,2332.06,1418.332Z" transform="translate(-2312.889 -1395.763)" fill="#01437d"/><path d="M2336.072,1396.952h-5.85l-16.529,37.995h7.567l3.434-8.694,2.307-5.8,5.957-15.455,5.849,15.455,2.361,5.8,3.542,8.694h7.727Z" transform="translate(-2313.693 -1396.952)" fill="#01437d"/></g><g transform="translate(2272.287 1396.191)"><path d="M2295.872,1404.742a3.929,3.929,0,1,0-3.929-3.928A3.928,3.928,0,0,0,2295.872,1404.742Z" transform="translate(-2271.194 -1396.791)" fill="#01437d"/><path d="M2297.527,1406.853a6.431,6.431,0,0,1-6.041-2.7l-15.88,19.964c.141-.01.281-.022.424-.022a6.481,6.481,0,0,1,5.368,2.844Z" transform="translate(-2272.103 -1396.387)" fill="#01437d"/><path d="M2290.447,1400.819a6.457,6.457,0,0,1,1.4-4.023H2272.8v5.9h17.929A6.455,6.455,0,0,1,2290.447,1400.819Z" transform="translate(-2272.259 -1396.796)" fill="#01437d"/><path d="M2281.819,1427.085a6.434,6.434,0,0,1-.821,6.01h20.044v-6.01Z" transform="translate(-2271.802 -1395.111)" fill="#01437d"/><path d="M2276.215,1425.474a3.928,3.928,0,1,0,3.928,3.928A3.928,3.928,0,0,0,2276.215,1425.474Z" transform="translate(-2272.287 -1395.201)" fill="#01437d"/></g></g></svg>