<svg xmlns="http://www.w3.org/2000/svg" width="104.263" height="104.263" viewBox="0 0 104.263 104.263">
  <path id="Icon_-_UI" data-name="Icon - UI" d="M105.593,28.614a5.685,5.685,0,0,0,0-8.05L89.436,4.407a5.685,5.685,0,0,0-8.05,0L55.752,30.041,33.544,7.833a11.44,11.44,0,0,0-16.157,0L6.54,18.68a11.44,11.44,0,0,0,0,16.157L28.748,57.045,3,82.793V107H27.207L53.012,81.195,75.22,103.4c5.424,5.424,12.731,3.425,16.157,0l10.847-10.847a11.44,11.44,0,0,0,0-16.157L80.016,54.191ZM14.647,26.73l10.79-10.847h0l7.251,7.251-6.737,6.794L34,37.977l6.794-6.794,6.851,6.851L36.8,48.881ZM78.76,69.206,71.966,76l8.05,8.05,6.794-6.794,7.251,7.251L83.213,95.353,61,73.145,71.852,62.3ZM22.468,95.582h-8.05v-8.05L69.283,32.667,76.7,40.089l.628.628ZM77.333,24.561l8.05-8.05,8.05,8.05-8.05,8.05Z" transform="translate(-3 -2.737)" fill="#01437d"/>
</svg>
