<svg xmlns="http://www.w3.org/2000/svg" width="110" height="106" viewBox="0 0 110 106">
  <path id="Icon_-_Devices" data-name="Icon - Devices" d="M105.417,49.753,82.5,49.7c-2.521,0-4.583,2.385-4.583,5.3v47.7c0,2.915,2.063,5.3,4.583,5.3h22.917c2.521,0,4.583-2.385,4.583-5.3V55C110,52.085,107.938,49.753,105.417,49.753Zm0,47.647H82.5V60.3h22.917ZM91.667,2H9.167C4.079,2,0,6.717,0,12.6V76.2c0,5.83,4.079,10.6,9.167,10.6H41.25V97.4H32.083V108H68.75V97.4H59.583V86.8H68.75V76.2H9.167V12.6h82.5V39.1h9.167V12.6C100.833,6.717,96.708,2,91.667,2Zm-36.8,37.1L50.417,23.2,45.971,39.1H32.083L43.4,48.428,39.1,63.851l11.321-9.54,11.321,9.54L57.429,48.428,68.75,39.1Z" transform="translate(0 -2)" fill="#01437d"/>
</svg>
