<svg xmlns="http://www.w3.org/2000/svg" width="94.517" height="94.517" viewBox="0 0 94.517 94.517">
  <g id="Icon_-_Inventory" data-name="Icon - Inventory" transform="translate(-7.952 -7.952)">
    <g id="Group_23" data-name="Group 23" transform="translate(7.952 7.952)">
      <g id="Group_22" data-name="Group 22">
        <path id="Path_17" data-name="Path 17" d="M87.066,2H11.452A9.8,9.8,0,0,0,2,11.452V25.677a9.547,9.547,0,0,0,4.726,7.987v53.4c0,5.2,5.2,9.452,9.452,9.452H82.34c4.253,0,9.452-4.253,9.452-9.452v-53.4a9.547,9.547,0,0,0,4.726-7.987V11.452A9.8,9.8,0,0,0,87.066,2ZM82.34,87.066H16.178V35.081H82.34Zm4.726-61.436H11.452V11.452H87.066Z" transform="translate(-2 -2)" fill="#01437d"/>
        <rect id="Rectangle_12" data-name="Rectangle 12" width="24" height="8" transform="translate(34.891 47.747)" fill="#01437d"/>
      </g>
    </g>
  </g>
</svg>
