<svg xmlns="http://www.w3.org/2000/svg" width="109.891" height="84.916" viewBox="0 0 109.891 84.916">
  <g id="Icon_-_Catalog" data-name="Icon - Catalog" transform="translate(-4.995 -22.478)">
    <g id="Group_14" data-name="Group 14" transform="translate(4.995 22.478)">
      <g id="Group_13" data-name="Group 13">
        <path id="Path_11" data-name="Path 11" d="M100.9,7A58.965,58.965,0,0,0,83.418,4.5c-9.74,0-20.23,2-27.473,7.493C48.7,6.5,38.213,4.5,28.473,4.5S8.243,6.5,1,11.993V85.17a2.686,2.686,0,0,0,2.5,2.5c.5,0,.749-.25,1.249-.25a60.967,60.967,0,0,1,23.727-5.495c9.74,0,20.23,2,27.473,7.493,6.743-4.246,18.981-7.493,27.473-7.493,8.242,0,16.733,1.5,23.727,5.245a2.252,2.252,0,0,0,1.249.25,2.686,2.686,0,0,0,2.5-2.5V11.993A34.069,34.069,0,0,0,100.9,7Zm0,67.433a58.045,58.045,0,0,0-17.483-2.5c-8.492,0-20.729,3.247-27.473,7.493V21.983c6.743-4.246,18.981-7.493,27.473-7.493a58.045,58.045,0,0,1,17.483,2.5Z" transform="translate(-1 -4.5)" fill="#01437d"/>
        <g id="Group_12" data-name="Group 12" transform="translate(59.941 22.478)">
          <path id="Path_12" data-name="Path 12" d="M35.478,16.493a58.413,58.413,0,0,1,12.488,1.3V10.2A67.449,67.449,0,0,0,35.478,9,57.478,57.478,0,0,0,13,13.146v8.292C18.644,18.241,26.487,16.493,35.478,16.493Z" transform="translate(-13 -9)" fill="#01437d"/>
          <path id="Path_13" data-name="Path 13" d="M13,15.806V24.1c5.644-3.2,13.487-4.945,22.478-4.945a58.413,58.413,0,0,1,12.488,1.3V12.859a67.449,67.449,0,0,0-12.488-1.2A58.4,58.4,0,0,0,13,15.806Z" transform="translate(-13 1.627)" fill="#01437d"/>
          <path id="Path_14" data-name="Path 14" d="M35.478,14.33A57.478,57.478,0,0,0,13,18.476v8.292c5.644-3.2,13.487-4.945,22.478-4.945a58.413,58.413,0,0,1,12.488,1.3V15.529A63.422,63.422,0,0,0,35.478,14.33Z" transform="translate(-13 12.294)" fill="#01437d"/>
        </g>
      </g>
    </g>
  </g>
</svg>
