<svg xmlns="http://www.w3.org/2000/svg" width="94.269" height="89.123" viewBox="0 0 94.269 89.123">
  <g id="Icon_-_Accounting" data-name="Icon - Accounting" transform="translate(-15.438 -15.438)">
    <path id="Path_16" data-name="Path 16" d="M92.308,24.192V12.9A9.942,9.942,0,0,0,82.385,3H12.923A9.91,9.91,0,0,0,3,12.9V82.221a9.91,9.91,0,0,0,9.923,9.9H82.385a9.942,9.942,0,0,0,9.923-9.9V70.932a9.9,9.9,0,0,0,4.962-8.516V32.708A9.9,9.9,0,0,0,92.308,24.192Zm-4.962,8.516V62.415H52.615V32.708ZM12.923,82.221V12.9H82.385v9.9H52.615a9.942,9.942,0,0,0-9.923,9.9V62.415a9.942,9.942,0,0,0,9.923,9.9H82.385v9.9Z" transform="translate(12.438 12.438)" fill="#01437d"/>
    <circle id="Ellipse_1" data-name="Ellipse 1" cx="7.719" cy="7.719" r="7.719" transform="translate(72.197 52.281)" fill="#01437d"/>
  </g>
</svg>
